<svg width="32" height="32" viewBox="0 0 32 32" fill="none" xmlns="http://www.w3.org/2000/svg">
<g clip-path="url(#clip0)">
<path d="M28.397 7.91748V25.4448C28.397 25.9199 27.9985 26.3054 27.5066 26.3054H10.1472C9.65527 26.3054 9.25708 25.9199 9.25708 25.4448V0.860596C9.25708 0.385742 9.65527 0 10.1472 0H20.2073C20.3354 0 20.4612 0.0268555 20.5759 0.0773926C20.6719 0.119385 20.7605 0.177979 20.8369 0.251953L28.1362 7.30859C28.2124 7.38257 28.2727 7.46802 28.3166 7.56104C28.3689 7.67188 28.397 7.79346 28.397 7.91748Z" fill="#FFDA44"/>
<path d="M28.397 7.91748V25.4448C28.397 25.9199 27.9985 26.3054 27.5066 26.3054H18.8271V0H20.2073C20.3354 0 20.4612 0.0268555 20.5757 0.0773926C20.6719 0.119385 20.7603 0.177979 20.8369 0.251953L28.1362 7.30859C28.2122 7.38257 28.2727 7.46802 28.3167 7.56104C28.3689 7.67188 28.397 7.79346 28.397 7.91748Z" fill="#FFCD00"/>
<path d="M28.3167 7.56103H21.4661C20.9744 7.56103 20.5759 7.17578 20.5759 6.70044V0.0773926C20.6719 0.119385 20.7605 0.177979 20.8369 0.251953L28.1362 7.30859C28.2124 7.38257 28.2727 7.46802 28.3167 7.56103Z" fill="#FFEB99"/>
<path d="M22.7024 13.6118V31.1394C22.7024 31.6145 22.3042 32 21.812 32H4.45288C3.96069 32 3.5625 31.6145 3.5625 31.1394V6.55518C3.5625 6.08008 3.96069 5.69458 4.45288 5.69458H14.5127C14.6409 5.69458 14.7668 5.72144 14.8813 5.77197C14.9775 5.81372 15.0659 5.87231 15.1426 5.94629L22.4419 13.0032C22.5178 13.0771 22.5784 13.1626 22.6223 13.2556C22.6746 13.3662 22.7024 13.488 22.7024 13.6118Z" fill="#4895FF"/>
<path d="M22.7024 13.6118V31.1394C22.7024 31.6145 22.3042 32 21.812 32H13.1328V5.69458H14.5127C14.6409 5.69458 14.7666 5.72144 14.8813 5.77197C14.9775 5.81372 15.0659 5.87231 15.1423 5.94629L22.4417 13.0032C22.5178 13.0771 22.5784 13.1626 22.6221 13.2556C22.6746 13.3662 22.7024 13.488 22.7024 13.6118Z" fill="#2682FF"/>
<path d="M22.6223 13.2556H15.7717C15.28 13.2556 14.8813 12.8701 14.8813 12.3948V5.77197C14.9775 5.81372 15.0659 5.87231 15.1426 5.94629L22.4419 13.0032C22.5178 13.0771 22.5784 13.1626 22.6223 13.2556Z" fill="#AED0FF"/>
</g>
<defs>
<clipPath id="clip0">
<rect width="32" height="32" fill="white"/>
</clipPath>
</defs>
</svg>
