<svg width="32" height="32" viewBox="0 0 32 32" fill="none" xmlns="http://www.w3.org/2000/svg">
<g clip-path="url(#clip0)">
<path d="M20.1975 19.3438L20.2343 19.335C23.0245 18.6718 25.7023 20.7877 25.7023 23.6557V24.7884C25.7023 25.1507 26.0525 25.4099 26.399 25.304L27.2884 25.0323C27.6727 24.9148 28.0176 25.3026 27.8562 25.6706L27.3938 26.7246C25.4745 31.1005 19.4152 31.4843 16.959 27.3856L16.4449 26.5276C16.2287 26.1669 15.7059 26.1669 15.4897 26.5276L14.9755 27.3856C12.5193 31.4843 6.46008 31.1005 4.54072 26.7246L4.07839 25.6706C3.91698 25.3026 4.26186 24.9148 4.64618 25.0323L5.53553 25.304C5.88203 25.4099 6.23229 25.1507 6.23229 24.7884V23.6557C6.23229 20.7878 8.9101 18.6718 11.7003 19.335L11.7371 19.3438L15.9688 20.1363L20.1975 19.3438Z" fill="#AA9EA9"/>
<path d="M20.2343 19.335L20.1975 19.3438L15.9687 20.1363L13.6538 19.7027L13.0769 19.9006V19.5946L11.7369 19.3437L11.7002 19.3349C8.90997 18.6718 6.23216 20.7878 6.23216 23.6557V24.6371V24.7883C6.23216 25.1506 5.8819 25.4098 5.5354 25.3039L4.64605 25.0322C4.26173 24.9147 3.91679 25.3025 4.07826 25.6705L4.54059 26.7245C6.30942 30.7571 11.594 31.3993 14.3346 28.2675C12.472 29.1067 10.2503 28.9177 8.55678 27.758C7.82783 27.2589 7.39575 26.4286 7.39575 25.5452V25.5448C7.39575 23.7573 8.43613 22.2621 9.89552 21.5498C10.6735 21.1701 11.5775 21.1762 12.3796 21.5015C12.7853 21.666 13.2226 21.7523 13.673 21.7523C13.7433 21.7523 13.8144 21.7501 13.8849 21.7458L14.3179 21.7195C14.7682 22.1247 15.3537 22.3521 15.9673 22.3521C16.582 22.3521 17.1679 22.1242 17.6168 21.7195L18.0568 21.7463C18.1098 21.7492 18.1809 21.7525 18.261 21.7525C19.8432 21.7525 21.1792 20.6804 21.5839 19.2242C21.1446 19.1928 20.691 19.2265 20.2343 19.335Z" fill="#9B8E99"/>
<path d="M19.5357 16.5079C20.1158 16.9211 20.4602 17.5887 20.4602 18.3007C20.4602 19.5234 19.4669 20.5024 18.2611 20.5024C18.2161 20.5024 18.1711 20.5005 18.1254 20.498L17.4078 20.4542C17.2115 20.4423 17.0215 20.5236 16.894 20.673C16.6514 20.9587 16.3089 21.1018 15.9675 21.1018C15.625 21.1018 15.2837 20.9587 15.0405 20.673C14.9217 20.533 14.7473 20.453 14.5642 20.453C14.5517 20.453 14.5392 20.4536 14.5267 20.4542L13.809 20.498C12.5432 20.5749 11.4742 19.5691 11.4742 18.3007C11.4742 17.945 11.5605 17.5999 11.7193 17.2924C11.8774 16.9848 12.1087 16.7148 12.3988 16.5079L13.6034 15.6496V12.7347L14.0091 7.26427C14.0091 6.43724 14.4754 5.68085 15.2137 5.30891C15.4512 5.18951 15.7094 5.13013 15.9675 5.13013C16.2257 5.13013 16.4839 5.18951 16.7208 5.30891C17.0903 5.49519 17.3909 5.77712 17.5997 6.11593C17.8091 6.45475 17.9254 6.85045 17.9254 7.26427L18.3311 12.7347V15.6496L19.5357 16.5079Z" fill="#FED2A4"/>
<path d="M13.3173 19.0838C13.3173 18.7281 13.4036 18.383 13.5624 18.0755C13.7205 17.7679 13.9518 17.4979 14.2419 17.2909C14.9977 16.7524 15.4465 15.8816 15.4465 14.9536V13.5177L15.8522 8.04736C15.8522 7.22033 16.3185 6.46394 17.0567 6.09199C17.1931 6.02348 17.3376 5.97503 17.4836 5.9459C17.2852 5.68285 17.0264 5.463 16.7208 5.30891C16.4839 5.18951 16.2257 5.13013 15.9675 5.13013C15.7094 5.13013 15.4512 5.18951 15.2137 5.30891C14.4754 5.68085 14.0091 6.43724 14.0091 7.26427L13.6034 12.7347V15.6496L12.3988 16.5079C12.1087 16.7148 11.8774 16.9848 11.7193 17.2924C11.5605 17.5999 11.4742 17.945 11.4742 18.3007C11.4742 19.5691 12.5432 20.5749 13.809 20.498L13.8312 20.4967C13.5113 20.1152 13.3173 19.6234 13.3173 19.0838Z" fill="#FFBD86"/>
<path d="M30.9266 8.92028H29.6413C29.063 6.22503 26.6673 4.20435 23.7993 4.20435C21.6175 4.20435 19.709 5.37394 18.666 7.1202C18.6122 7.21034 18.5138 7.26435 18.4089 7.26435H13.5912C13.4862 7.26435 13.3878 7.21034 13.334 7.1202C12.291 5.37394 10.3826 4.20435 8.20071 4.20435C5.33268 4.20435 2.93705 6.22503 2.35869 8.92028H1.07339C0.739517 8.92028 0.468842 9.19096 0.468842 9.52483V10.8347C0.468842 11.1686 0.739517 11.4393 1.07339 11.4393H2.35869C2.93705 14.1345 5.33268 16.1552 8.20071 16.1552C11.5008 16.1552 14.1761 13.4799 14.1761 10.1798C14.1761 10.1787 14.1761 10.1777 14.1761 10.1766C14.1761 10.0085 14.3097 9.87102 14.4778 9.87102H17.5222C17.6903 9.87102 17.824 10.0085 17.8239 10.1766V10.1798C17.8239 13.4799 20.4992 16.1552 23.7993 16.1552C26.6673 16.1552 29.063 14.1345 29.6413 11.4393H30.9266C31.2605 11.4393 31.5312 11.1686 31.5312 10.8347V9.52483C31.5312 9.1909 31.2605 8.92028 30.9266 8.92028Z" fill="#9CF8D2"/>
<path d="M8.20069 14.1895C10.4152 14.1895 12.2104 12.3943 12.2104 10.1798C12.2104 7.96524 10.4152 6.17001 8.20069 6.17001C5.98617 6.17001 4.19095 7.96524 4.19095 10.1798C4.19095 12.3943 5.98617 14.1895 8.20069 14.1895Z" fill="#C8EFFE"/>
<path d="M23.7993 14.1895C26.0138 14.1895 27.809 12.3943 27.809 10.1798C27.809 7.96524 26.0138 6.17001 23.7993 6.17001C21.5847 6.17001 19.7895 7.96524 19.7895 10.1798C19.7895 12.3943 21.5847 14.1895 23.7993 14.1895Z" fill="#C8EFFE"/>
<path d="M7.34685 10.1798C7.34685 8.52876 8.35078 7.10794 9.77942 6.49395C9.29483 6.28566 8.76067 6.17001 8.20069 6.17001C5.98972 6.17001 4.19095 7.96878 4.19095 10.1798C4.19095 12.3907 5.98972 14.1895 8.20069 14.1895C8.76073 14.1895 9.29483 14.0739 9.77942 13.8656C8.35084 13.2516 7.34685 11.8307 7.34685 10.1798Z" fill="#99E6FC"/>
<path d="M22.9455 10.1798C22.9455 8.52876 23.9493 7.10787 25.3779 6.49389C24.8933 6.2856 24.3593 6.17001 23.7993 6.17001C21.5884 6.17001 19.7896 7.96878 19.7896 10.1798C19.7896 12.3907 21.5884 14.1895 23.7993 14.1895C24.3594 14.1895 24.8933 14.0739 25.3779 13.8656C23.9493 13.2516 22.9455 11.8307 22.9455 10.1798Z" fill="#99E6FC"/>
<path d="M12.1488 4.20434H3.5854C2.94009 4.20434 2.41693 3.68118 2.41693 3.03587V2.92329C2.41693 2.27798 2.94009 1.75482 3.5854 1.75482H12.1488C12.7941 1.75482 13.3173 2.27798 13.3173 2.92329V3.03587C13.3173 3.68118 12.7941 4.20434 12.1488 4.20434Z" fill="#AA9EA9"/>
<path d="M19.8512 4.20434H28.4146C29.0599 4.20434 29.583 3.68118 29.583 3.03587V2.92329C29.583 2.27798 29.0599 1.75482 28.4146 1.75482H19.8512C19.2059 1.75482 18.6827 2.27798 18.6827 2.92329V3.03587C18.6827 3.68118 19.2059 4.20434 19.8512 4.20434Z" fill="#AA9EA9"/>
<path d="M8.20069 5.70117C5.73117 5.70117 3.72211 7.71023 3.72211 10.1797C3.72211 12.6492 5.73117 14.6583 8.20069 14.6583C10.6701 14.6583 12.6793 12.6493 12.6793 10.1797C12.6793 7.71023 10.6701 5.70117 8.20069 5.70117ZM8.20069 13.7206C6.2482 13.7206 4.65978 12.1322 4.65978 10.1797C4.65978 8.2272 6.2482 6.63878 8.20069 6.63878C10.1531 6.63878 11.7416 8.2272 11.7416 10.1797C11.7416 12.1322 10.1531 13.7206 8.20069 13.7206Z" fill="black"/>
<path d="M23.7993 5.70117C22.7665 5.70117 21.758 6.06268 20.9594 6.71917C20.7593 6.88358 20.7305 7.17901 20.8949 7.37911C21.0593 7.57902 21.3547 7.60802 21.5549 7.44356C22.1862 6.92465 22.9833 6.63885 23.7994 6.63885C25.7518 6.63885 27.3403 8.22726 27.3403 10.1797C27.3403 12.1322 25.7518 13.7207 23.7994 13.7207C21.8469 13.7207 20.2584 12.1322 20.2584 10.1797C20.2584 9.7286 20.3435 9.2874 20.5114 8.86826C20.6077 8.6279 20.4909 8.35498 20.2505 8.25871C20.01 8.16238 19.7372 8.27927 19.641 8.51963C19.4285 9.0501 19.3208 9.60864 19.3208 10.1797C19.3208 12.6492 21.3298 14.6583 23.7994 14.6583C26.2689 14.6583 28.2779 12.6493 28.2779 10.1797C28.2779 7.71023 26.2688 5.70117 23.7993 5.70117Z" fill="black"/>
<path d="M30.9266 8.45137H30.0084C29.6539 7.17907 28.9062 6.03136 27.8757 5.18858C27.6438 4.99892 27.399 4.82745 27.1447 4.67311H28.4146C29.3174 4.67311 30.052 3.9386 30.052 3.03587V2.92328C30.052 2.02049 29.3174 1.28598 28.4146 1.28598H19.8512C18.9484 1.28598 18.2139 2.02049 18.2139 2.92328V3.03587C18.2139 3.93866 18.9485 4.67311 19.8512 4.67311H20.4623C19.6151 5.1862 18.884 5.89296 18.3436 6.75049C18.1885 5.95297 17.6773 5.26578 16.9315 4.89015C16.3277 4.58609 15.6068 4.58609 15.0029 4.89015C14.2813 5.25365 13.7792 5.90884 13.6069 6.67342C13.0717 5.85064 12.3593 5.17083 11.5376 4.67317H12.1488C13.0515 4.67317 13.786 3.93866 13.786 3.03587V2.92328C13.786 2.02049 13.0515 1.28604 12.1488 1.28604H10.4063C10.1474 1.28604 9.93747 1.49596 9.93747 1.75488C9.93747 2.0138 10.1474 2.22372 10.4063 2.22372H12.1488C12.5345 2.22372 12.8483 2.53759 12.8483 2.92328V3.03587C12.8483 3.42163 12.5345 3.7355 12.1488 3.7355H3.58542C3.19966 3.7355 2.88579 3.42163 2.88579 3.03587V2.92328C2.88579 2.53752 3.19966 2.22372 3.58542 2.22372H8.40831C8.66723 2.22372 8.87715 2.0138 8.87715 1.75488C8.87715 1.49596 8.66723 1.28604 8.40831 1.28604H3.58542C2.68262 1.28604 1.94811 2.02055 1.94811 2.92328V3.03587C1.94811 3.93866 2.68262 4.67317 3.58542 4.67317H4.85534C4.60092 4.82751 4.35618 4.99898 4.12427 5.18864C3.09376 6.03136 2.34606 7.17914 1.99156 8.45143H1.07339C0.481527 8.45137 0 8.93296 0 9.52482V10.8347C0 11.4265 0.481527 11.9081 1.07339 11.9081H1.99156C2.34606 13.1804 3.09376 14.3281 4.12427 15.1709C5.27017 16.1079 6.71781 16.624 8.20065 16.624C10.1788 16.624 11.9515 15.7279 13.1345 14.3199V15.4081L12.1265 16.1259C11.4244 16.6259 11.0052 17.439 11.0052 18.3009C11.0052 18.4564 11.019 18.6094 11.0446 18.7591C9.781 18.6593 8.53496 19.0499 7.53671 19.8784C7.33749 20.0438 7.31004 20.3394 7.47539 20.5386C7.56809 20.6503 7.70174 20.708 7.83639 20.708C7.94191 20.708 8.04806 20.6726 8.13557 20.5999C9.06537 19.8282 10.2608 19.5269 11.4377 19.7592C11.5525 19.9342 11.6884 20.0976 11.8454 20.2454C12.3872 20.7553 13.0946 21.011 13.8374 20.9661L14.5552 20.9224C14.6042 20.9192 14.6518 20.9399 14.6835 20.9771C14.9078 21.2406 15.2041 21.4252 15.5311 21.5127V25.8846C15.3499 25.9694 15.1951 26.107 15.0875 26.2866L14.5733 27.1446C13.5117 28.916 11.6477 29.8957 9.5864 29.7651C7.52533 29.6346 5.79958 28.4276 4.97005 26.5363L4.50596 25.4838C4.50659 25.4823 4.50896 25.4796 4.50915 25.4807L5.3985 25.7524C5.70725 25.8467 6.03324 25.7907 6.29273 25.5986C6.55228 25.4066 6.70112 25.1112 6.70112 24.7883V23.6557C6.70112 23.0838 6.81877 22.5335 7.05075 22.0203C7.15745 21.7844 7.05262 21.5067 6.81664 21.4C6.58078 21.2933 6.30298 21.3981 6.19634 21.6341C5.9091 22.2696 5.76344 22.9497 5.76344 23.6558V24.7884C5.76344 24.8119 5.75388 24.831 5.73494 24.845C5.71606 24.859 5.69512 24.8626 5.67255 24.8557L4.78314 24.5839C4.42801 24.4755 4.05406 24.5804 3.80727 24.8579C3.56047 25.1353 3.49984 25.5189 3.64899 25.859L4.11133 26.913C4.60317 28.0343 5.38575 28.9772 6.37443 29.6399C7.30317 30.2623 8.39331 30.6292 9.52714 30.7011C10.6608 30.7729 11.7887 30.5464 12.7886 30.0462C13.8529 29.5137 14.7482 28.677 15.3777 27.6267L15.8918 26.7687C15.9088 26.7403 15.9342 26.726 15.9673 26.726C16.0003 26.726 16.0257 26.7403 16.0427 26.7686L16.5569 27.6267C17.1863 28.677 18.0816 29.5137 19.146 30.0462C20.0249 30.4859 21.0025 30.7141 21.9963 30.7141C22.1331 30.7141 22.2702 30.7098 22.4074 30.7011C23.5412 30.6292 24.6314 30.2623 25.5601 29.6399C26.5488 28.9773 27.3314 28.0343 27.8232 26.913L28.2856 25.859C28.4347 25.5189 28.3741 25.1353 28.1273 24.8579C27.8805 24.5804 27.5067 24.4755 27.1514 24.5839L26.2621 24.8557C26.2396 24.8625 26.2186 24.859 26.1997 24.845C26.1807 24.831 26.1712 24.812 26.1712 24.7884V23.6558C26.1712 22.1445 25.4911 20.7403 24.3053 19.8034C23.3241 19.0281 22.1119 18.6643 20.8898 18.7596C20.9154 18.6098 20.9293 18.4566 20.9293 18.3009C20.9293 17.439 20.5101 16.6259 19.808 16.126L18.8 15.4082V14.2414C19.9826 15.6943 21.7844 16.6241 23.7994 16.6241C25.2823 16.6241 26.73 16.108 27.8758 15.1709C28.9063 14.3282 29.654 13.1804 30.0085 11.9081H30.9267C31.5185 11.9081 32.0001 11.4266 32.0001 10.8348V9.52482C32 8.9329 31.5185 8.45137 30.9266 8.45137ZM19.8512 3.7355C19.4654 3.7355 19.1516 3.42163 19.1516 3.03593V2.92335C19.1516 2.53759 19.4655 2.22372 19.8512 2.22372H28.4146C28.8003 2.22372 29.1142 2.53759 29.1142 2.92335V3.03593C29.1142 3.42169 28.8003 3.7355 28.4146 3.7355H19.8512ZM15.4248 5.72755C15.7646 5.55658 16.1701 5.55652 16.5097 5.72755C16.9495 5.94903 17.2636 6.33779 17.392 6.79544H14.5426C14.6709 6.33779 14.985 5.94903 15.4248 5.72755ZM20.4967 19.7591C21.638 19.5342 22.8059 19.8137 23.7238 20.5391C24.6832 21.2971 25.2334 22.4331 25.2334 23.6557V24.7883C25.2334 25.1112 25.3822 25.4066 25.6418 25.5986C25.9012 25.7907 26.2272 25.8467 26.5359 25.7523L27.424 25.4787C27.4255 25.4795 27.4279 25.4822 27.4267 25.4822L26.9644 26.5362C26.1349 28.4275 24.4092 29.6346 22.348 29.7651C20.287 29.8957 18.4227 28.916 17.3611 27.1445L16.8469 26.2865C16.7525 26.1289 16.6218 26.0036 16.4688 25.9179V21.4935C16.7698 21.3997 17.0417 21.2229 17.2508 20.977C17.2825 20.9399 17.3301 20.9192 17.3792 20.9224L18.097 20.966C18.8394 21.0107 19.547 20.7552 20.0889 20.2453C20.246 20.0975 20.382 19.9341 20.4967 19.7591ZM18.0591 16.0317L19.2639 16.8897C19.7195 17.2141 19.9915 17.7417 19.9915 18.3009C19.9915 18.7837 19.7979 19.2317 19.4463 19.5626C19.0947 19.8934 18.6361 20.0598 18.1539 20.0302L17.4361 19.9866C17.0945 19.9661 16.7584 20.109 16.5367 20.3695C16.3944 20.5368 16.1868 20.6327 15.9672 20.6327C15.7476 20.6327 15.54 20.5367 15.3977 20.3695C15.1761 20.109 14.8402 19.9661 14.4983 19.9866L13.7805 20.0302C13.2982 20.0594 12.8396 19.8934 12.4881 19.5626C12.1365 19.2318 11.9429 18.7838 11.9429 18.301C11.9429 17.7418 12.2149 17.2142 12.6704 16.8898L13.8753 16.0318C13.9988 15.9438 14.0721 15.8015 14.0721 15.6499V12.8327C14.4184 12.0692 14.6206 11.2267 14.6428 10.34H17.3568C17.3772 11.1717 17.5563 11.9646 17.8643 12.6901C17.8629 12.7049 17.8621 12.7199 17.8621 12.7351V15.65C17.8623 15.8014 17.9356 15.9437 18.0591 16.0317ZM31.0623 10.8347C31.0623 10.9095 31.0014 10.9704 30.9266 10.9704H29.6413C29.4203 10.9704 29.2293 11.1247 29.1829 11.3409C28.9229 12.5529 28.2478 13.6553 27.2821 14.445C26.3033 15.2455 25.0664 15.6863 23.7993 15.6863C20.763 15.6863 18.2927 13.2161 18.2927 10.1769C18.2928 9.97153 18.2139 9.77812 18.0705 9.63215C17.9248 9.48388 17.7301 9.40217 17.5222 9.40217H14.4778C14.2699 9.40217 14.0752 9.48388 13.9295 9.63215C13.7861 9.77805 13.7072 9.97153 13.7073 10.1798C13.7073 13.2161 11.237 15.6863 8.20071 15.6863C6.9336 15.6863 5.69674 15.2455 4.71788 14.445C3.7522 13.6553 3.07713 12.5529 2.81709 11.3409C2.7707 11.1247 2.57973 10.9704 2.35869 10.9704H1.07339C0.99856 10.9704 0.937674 10.9095 0.937674 10.8347V9.52482C0.937674 9.44999 0.99856 9.38911 1.07339 9.38911H2.35869C2.57973 9.38911 2.7707 9.23477 2.81709 9.01866C3.07713 7.80663 3.7522 6.70424 4.71788 5.91453C5.69637 5.11432 6.93272 4.67355 8.19927 4.67323H8.20252C10.1298 4.67386 11.9417 5.70349 12.9314 7.36054C13.0686 7.5904 13.3214 7.73318 13.5911 7.73318H18.4088C18.6785 7.73318 18.9313 7.5904 19.0685 7.36067C20.0586 5.70299 21.8713 4.67323 23.7992 4.67323C25.0663 4.67323 26.3032 5.11407 27.2821 5.91459C28.2477 6.7043 28.9228 7.80669 29.1829 9.01873C29.2292 9.23483 29.4202 9.38917 29.6413 9.38917H30.9266C31.0014 9.38917 31.0623 9.45006 31.0623 9.52488V10.8347H31.0623Z" fill="black"/>
</g>
<defs>
<clipPath id="clip0">
<rect width="32" height="32" fill="white"/>
</clipPath>
</defs>
</svg>
