<svg width="32" height="32" viewBox="0 0 32 32" fill="none" xmlns="http://www.w3.org/2000/svg">
<path d="M11.0919 15.2767L10.1324 13.6654L20.866 7.21619L21.8255 8.8275L11.0919 15.2767Z" fill="#0095FF"/>
<path d="M20.7671 25.0987L10.4244 19.8132L11.2704 18.1396L21.6131 23.4252L20.7671 25.0987Z" fill="#0095FF"/>
<path d="M25.375 0C22.2812 0 19.75 2.53119 19.75 5.625C19.75 8.71869 22.2812 11.25 25.375 11.25C28.4688 11.25 31 8.71869 31 5.625C31 2.53119 28.4688 0 25.375 0Z" fill="#00ABE9"/>
<path d="M25.375 20.75C22.2812 20.75 19.75 23.2812 19.75 26.375C19.75 29.4687 22.2812 32 25.375 32C28.4688 32 31 29.4687 31 26.375C31 23.2812 28.4688 20.75 25.375 20.75Z" fill="#00ABE9"/>
<path d="M6.625 11.3125C3.53119 11.3125 1 13.8437 1 16.9375C1 20.0312 3.53119 22.5625 6.625 22.5625C9.71881 22.5625 12.25 20.0312 12.25 16.9375C12.25 13.8437 9.71881 11.3125 6.625 11.3125Z" fill="#00ABE9"/>
<path d="M31 26.375C31 29.4687 28.4688 32 25.375 32V20.75C28.4688 20.75 31 23.2812 31 26.375Z" fill="#0095FF"/>
<path d="M25.375 11.25V0C28.4688 0 31 2.53119 31 5.625C31 8.71869 28.4688 11.25 25.375 11.25Z" fill="#0095FF"/>
<path d="M12.25 16.9375C12.25 20.0312 9.71881 22.5625 6.625 22.5625V11.3125C9.71881 11.3125 12.25 13.8437 12.25 16.9375Z" fill="#0095FF"/>
</svg>
